<?xml version="1.0" standalone="no"?>
<!DOCTYPE svg PUBLIC "-//W3C//DTD SVG 20010904//EN"
 "http://www.w3.org/TR/2001/REC-SVG-20010904/DTD/svg10.dtd">
<svg version="1.0" xmlns="http://www.w3.org/2000/svg"
 width="512.000000pt" height="512.000000pt" viewBox="0 0 512.000000 512.000000"
 preserveAspectRatio="xMidYMid meet">
<metadata>
Created by potrace 1.14, written by Peter Selinger 2001-2017
</metadata>
<g transform="translate(0.000000,512.000000) scale(0.100000,-0.100000)"
fill="#000000" stroke="none">
<path d="M681 3904 c-29 -41 -78 -117 -107 -167 l-54 -91 0 -1086 0 -1086 60
-102 c33 -56 94 -147 136 -202 l76 -101 527 4 c577 4 590 5 788 73 628 214
978 828 903 1585 -61 616 -367 1026 -879 1179 -210 62 -218 63 -831 67 l-565
4 -54 -77z m1147 -453 c382 -114 582 -431 582 -923 0 -188 -35 -353 -107 -508
-100 -216 -270 -368 -478 -427 -50 -14 -118 -17 -392 -21 l-333 -3 0 956 0
957 328 -4 c301 -4 333 -6 400 -27z"/>
<path d="M2950 3720 l0 -260 380 0 380 0 0 -1195 0 -1195 295 0 295 0 0 1195
0 1195 195 0 195 0 -60 120 c-68 136 -120 224 -194 327 l-51 73 -717 0 -718 0
0 -260z"/>
</g>
</svg>
