<svg width="82" height="81" viewBox="0 0 82 81" fill="none" xmlns="http://www.w3.org/2000/svg">
<path d="M0.899952 40.5704C0.899602 48.25 3.10338 55.7684 7.24954 62.2326C11.3957 68.6969 17.31 73.8353 24.2901 77.0377C31.2702 80.24 39.0228 81.3718 46.627 80.2985C54.2313 79.2252 61.3678 75.9919 67.1889 70.9828C73.01 65.9736 77.2711 59.399 79.4662 52.0397C81.6612 44.6805 81.698 36.8459 79.5722 29.4663C77.4463 22.0868 73.2471 15.4724 67.4734 10.4088C61.6996 5.34518 54.5938 2.04506 47 0.900391C47 0.900391 47 53.6004 47 53.8004C47 62.1304 40.74 70.0004 32.41 70.0004C24.08 70.0004 17.2099 63.8804 17.2099 56.3804C17.1619 54.3679 17.5217 52.3665 18.2676 50.4967C19.0134 48.6269 20.13 46.9273 21.5499 45.5004C25.5499 41.5604 33.4 37.6104 37.65 32.0304C40.36 28.4904 41.0899 26.1604 41.0899 22.4104C41.1177 20.4287 40.7548 18.4609 40.0221 16.6195C39.2893 14.778 38.2009 13.099 36.8191 11.6782C35.4373 10.2574 33.7892 9.12278 31.9689 8.33902C30.1486 7.55527 28.1917 7.13778 26.2099 7.11039C22.9865 7.17606 19.8268 8.02003 17 9.57039C12.5803 12.1062 8.92821 15.7894 6.42995 20.2304C2.79852 26.3929 0.888679 33.4175 0.899952 40.5704Z" fill="#BADA55"/>
</svg>
