<svg width="60" height="60" viewBox="0 0 60 60" fill="none" xmlns="http://www.w3.org/2000/svg">
<g clip-path="url(#clip0_148_274)">
<path d="M30.0025 36.1425C35.1025 36.1425 34.995 36.1425 34.995 37.755V47.89H41.9325V19.8175H34.995V28.245C34.995 29.905 35.1 29.9 30.0025 29.9C24.9025 29.9 25.015 29.905 25.015 28.245V19.82H18.075V47.89H25.0125V37.755C25.0125 36.145 24.905 36.1425 30.0025 36.1425ZM30 0C32.6 0 34.3 0.45 35.01 0.6025C34.6525 3.87 34.76 6.49 35.01 7.245C35.8775 9.76 40.81 10.9325 42.7975 9.775C44.9925 8.4675 44.4875 4.5025 44.4875 1.8875C44.4875 1.8875 47.7225 2.64 49.7025 3.3725C51.3125 3.9675 53.685 5.13 53.685 5.13C54.155 8.4375 53.71 13.3325 50.395 14.9925C52.895 17.455 53.7325 20.3725 54.805 25.7525C55.67 30.5825 55.4675 33.9525 55.4125 36.765C55.16 40.59 55.16 42.65 54.2425 46.1225C52.9175 50.0925 52.1325 51.96 49.4475 54.7175C43.9975 60.3275 35.1125 60 30 59.995C24.8875 59.9975 16.005 60.3275 10.5525 54.72C7.86746 51.96 7.08246 50.095 5.75746 46.1225C4.83996 42.65 4.83996 40.59 4.58496 36.765C4.53496 33.95 4.32996 30.5825 5.19746 25.7525C6.26746 20.3725 7.10496 17.455 9.60496 14.9925C6.28996 13.3325 5.84496 8.4375 6.31496 5.13C6.31496 5.13 8.68996 3.9675 10.2975 3.3725C12.2775 2.64 15.51 1.8875 15.51 1.8875C15.51 4.5025 15.0075 8.4675 17.2 9.775C19.1925 10.9325 24.12 9.76 24.99 7.245C25.245 6.49 25.345 3.87 24.99 0.6025C25.7 0.4525 27.3975 0 30 0ZM29.99 52.8125C35.9575 52.8125 37.8625 52.8125 40.8175 52.0075C41.8375 51.6575 43.675 51.155 45.0025 49.0925C47.45 44.9675 47.45 37.225 47.45 33.5025C47.45 29.7775 47.45 23.19 45.0025 19.1175C43.6775 17.0025 41.865 16.4225 40.8175 16.1475C37.7975 15.3575 35.86 15.405 29.99 15.3925H29.995C24.125 15.405 22.1875 15.3575 19.1675 16.1475C18.1225 16.4225 16.31 17.0025 14.9825 19.1175C12.535 23.1925 12.535 29.7775 12.535 33.5025C12.535 37.225 12.535 44.9675 14.985 49.0925C16.31 51.155 18.145 51.655 19.1675 52.0075C22.1225 52.815 24.025 52.8125 29.99 52.8125Z" fill="#BADA55"/>
</g>
<defs>
<clipPath id="clip0_148_274">
<rect width="60" height="60" fill="white"/>
</clipPath>
</defs>
</svg>
