<svg width="31" height="31" viewBox="0 0 31 31" fill="none" xmlns="http://www.w3.org/2000/svg">
<path d="M11.1082 6.15517C11.1371 6.21893 11.1659 6.28268 11.2005 6.34643C11.2352 6.41019 11.264 6.46814 11.2986 6.5319C11.3333 6.58985 11.3679 6.65361 11.4083 6.71157C11.541 6.92021 11.691 7.11147 11.8526 7.29114C11.8757 7.31433 11.8987 7.3433 11.9218 7.36649C11.968 7.41865 12.0199 7.46502 12.0719 7.51718C12.1238 7.56354 12.1757 7.60991 12.2277 7.65628C12.3084 7.72583 12.3892 7.78958 12.47 7.85333C12.5797 7.93447 12.6951 8.01561 12.8162 8.09096C12.8739 8.12573 12.9374 8.16051 12.9951 8.19528C13.024 8.21267 13.0586 8.23006 13.0874 8.24165C13.2432 8.32279 13.4048 8.39234 13.5722 8.45609C13.6703 8.49087 13.7741 8.52564 13.878 8.55462C14.0165 8.59519 14.155 8.62417 14.2992 8.65315C14.5473 8.69952 14.807 8.7227 15.0667 8.7227C15.2167 8.7227 15.3667 8.7169 15.511 8.69951C15.586 8.69372 15.6553 8.68213 15.7303 8.67054C15.7649 8.66474 15.7995 8.65894 15.8399 8.65315C16.0188 8.61837 16.1919 8.5778 16.3592 8.52564C16.3939 8.51405 16.4285 8.50246 16.4631 8.49087C18.1769 7.91129 19.4118 6.28268 19.4118 4.36428C19.4118 2.44588 18.1654 0.817267 16.4516 0.23769C16.4169 0.226099 16.3823 0.214507 16.3477 0.202915C16.1804 0.150753 16.0015 0.104387 15.8284 0.0754084C15.7937 0.0696127 15.7591 0.0638167 15.7187 0.058021C15.6495 0.0464294 15.5745 0.0406336 15.4995 0.0290421C15.3552 0.0116548 15.2052 0.00585938 15.0551 0.00585938C14.7955 0.00585938 14.5358 0.0290423 14.2877 0.0754084C14.1434 0.0985915 14.0049 0.133366 13.8664 0.173936C13.7626 0.202915 13.6645 0.237691 13.5606 0.272465C13.3933 0.336219 13.2317 0.405768 13.0759 0.486908C13.0471 0.504296 13.0124 0.521683 12.9836 0.533275C12.9201 0.568049 12.8624 0.602823 12.8047 0.637598C12.6835 0.712943 12.5681 0.788288 12.4585 0.875225C12.3777 0.938978 12.2911 1.00273 12.2161 1.07228C12.1642 1.11865 12.1123 1.16501 12.0603 1.21138C12.0084 1.25775 11.9622 1.30991 11.9103 1.36207C11.8872 1.38525 11.8641 1.41423 11.841 1.43741C11.6795 1.61708 11.5294 1.81414 11.3967 2.01699C11.3563 2.07495 11.3217 2.1387 11.2871 2.19666C11.2525 2.25462 11.2178 2.31837 11.189 2.38213C11.1544 2.44588 11.1255 2.50963 11.0967 2.57339C10.8485 3.11819 10.7158 3.72674 10.7158 4.36428C10.7158 5.00181 10.8601 5.61037 11.1082 6.15517Z" fill="#BADA55"/>
<path d="M25.7601 19.4749C28.1619 19.4749 30.1175 17.5279 30.128 15.1261C30.1386 12.7244 28.2001 10.7773 25.7983 10.7773C23.3965 10.7773 21.4409 12.7244 21.4304 15.1261C21.4198 17.5279 23.3583 19.4749 25.7601 19.4749Z" fill="#BADA55"/>
<path d="M15.0423 30.245C17.4441 30.245 19.3997 28.2979 19.4103 25.8962C19.4208 23.4944 17.4823 21.5474 15.0805 21.5474C12.6787 21.5474 10.7231 23.4944 10.7126 25.8962C10.702 28.2979 12.6405 30.245 15.0423 30.245Z" fill="#BADA55"/>
<path d="M25.782 21.5371C22.2563 21.5371 19.4 18.6682 19.4 15.127C19.4 11.5857 22.2563 8.71684 25.782 8.71684C28.1767 8.71684 30.1213 6.76366 30.1213 4.35842C30.1213 1.95318 28.1767 0 25.782 0C23.3873 0 21.4427 1.95318 21.4427 4.35842C21.4427 7.89964 18.5864 10.7685 15.0607 10.7685C13.393 10.7685 11.9447 11.7133 11.2176 13.0984C10.9233 13.6317 10.352 13.9968 9.7 13.9968C9.05372 13.9968 8.49399 13.6432 8.19393 13.1216C7.78423 12.3276 7.13795 11.6785 6.35318 11.267C5.82231 10.9656 5.47031 10.3976 5.47031 9.74849C5.47031 9.09356 5.83385 8.51978 6.36472 8.2242C6.38203 8.21261 6.39934 8.20681 6.41666 8.19522C6.41666 8.19522 6.42243 8.19522 6.42243 8.18942C7.76692 7.44757 8.67864 6.01601 8.67864 4.36422C8.67864 1.95897 6.73403 0.00579612 4.33932 0.00579612C1.94462 0.00579612 0 1.95897 0 4.36422C0 6.03919 0.940572 7.49393 2.31969 8.2242C2.85056 8.51978 3.2141 9.09356 3.2141 9.74849C3.2141 10.3976 2.86211 10.9598 2.34277 11.2612C0.952112 11.9857 0.00577073 13.4462 0.00577073 15.127C0.00577073 16.8019 0.946341 18.2567 2.32546 18.9869C2.85633 19.2825 3.21987 19.8563 3.21987 20.5112C3.21987 21.1604 2.86788 21.7225 2.34854 22.0239C0.957883 22.7484 0.0115415 24.2089 0.0115415 25.8897C0.0115415 28.295 1.95616 30.2481 4.35086 30.2481C6.74557 30.2481 8.69018 28.295 8.69018 25.8897C8.69018 24.2089 7.74384 22.7542 6.35895 22.0239C5.82808 21.7225 5.47608 21.1546 5.47608 20.5054C5.47608 19.8505 5.83962 19.2767 6.37049 18.9811C6.3878 18.9696 6.40512 18.9638 6.42243 18.9522C6.42243 18.9522 6.4282 18.9522 6.4282 18.9464C7.17834 18.5349 7.79577 17.9031 8.19393 17.1381C8.49399 16.6049 9.05949 16.2513 9.70577 16.2513C10.3578 16.2513 10.9291 16.6165 11.2234 17.1497C11.2349 17.1671 11.2407 17.1845 11.2522 17.2018C11.2522 17.2018 11.2522 17.2076 11.258 17.2076C11.9966 18.5581 13.4219 19.4738 15.0664 19.4738C18.5921 19.4738 21.4485 22.3427 21.4485 25.8839C21.4485 28.2892 23.3931 30.2423 25.7878 30.2423C28.1825 30.2423 30.1271 28.2892 30.1271 25.8839C30.1156 23.4845 28.1767 21.5371 25.782 21.5371Z" fill="#BADA55"/>
</svg>
